<svg width="293" height="73" viewBox="0 0 293 73" fill="none" xmlns="http://www.w3.org/2000/svg">
<g filter="url(#filter0_d_12_9)">
<path d="M78.288 48L70.864 25.6H75.184L81.808 45.856H79.664L86.544 25.6H90.384L97.072 45.856H94.992L101.776 25.6H105.744L98.32 48H93.904L87.792 29.728H88.944L82.736 48H78.288ZM106.846 48L116.926 25.6H121.022L131.134 48H126.782L118.11 27.808H119.774L111.134 48H106.846ZM111.486 42.816L112.606 39.552H124.702L125.822 42.816H111.486ZM142.527 48.32C140.778 48.32 139.103 48.0747 137.503 47.584C135.903 47.072 134.634 46.4213 133.695 45.632L135.135 42.4C136.031 43.104 137.14 43.6907 138.463 44.16C139.786 44.6293 141.14 44.864 142.527 44.864C143.7 44.864 144.65 44.736 145.375 44.48C146.1 44.224 146.634 43.8827 146.975 43.456C147.316 43.008 147.487 42.5067 147.487 41.952C147.487 41.2693 147.242 40.7253 146.751 40.32C146.26 39.8933 145.62 39.5627 144.831 39.328C144.063 39.072 143.199 38.8373 142.239 38.624C141.3 38.4107 140.351 38.1653 139.391 37.888C138.452 37.5893 137.588 37.216 136.799 36.768C136.031 36.2987 135.402 35.68 134.911 34.912C134.42 34.144 134.175 33.1627 134.175 31.968C134.175 30.752 134.495 29.6427 135.135 28.64C135.796 27.616 136.788 26.8053 138.111 26.208C139.455 25.5893 141.151 25.28 143.199 25.28C144.543 25.28 145.876 25.4507 147.199 25.792C148.522 26.1333 149.674 26.624 150.655 27.264L149.343 30.496C148.34 29.8987 147.306 29.4613 146.239 29.184C145.172 28.8853 144.148 28.736 143.167 28.736C142.015 28.736 141.076 28.8747 140.351 29.152C139.647 29.4293 139.124 29.792 138.783 30.24C138.463 30.688 138.303 31.2 138.303 31.776C138.303 32.4587 138.538 33.0133 139.007 33.44C139.498 33.8453 140.127 34.1653 140.895 34.4C141.684 34.6347 142.559 34.8693 143.519 35.104C144.479 35.3173 145.428 35.5627 146.367 35.84C147.327 36.1173 148.191 36.48 148.959 36.928C149.748 37.376 150.378 37.984 150.847 38.752C151.338 39.52 151.583 40.4907 151.583 41.664C151.583 42.8587 151.252 43.968 150.591 44.992C149.951 45.9947 148.959 46.8053 147.615 47.424C146.271 48.0213 144.575 48.32 142.527 48.32ZM161.54 48V29.12H154.116V25.6H173.124V29.12H165.7V48H161.54ZM181.686 34.912H192.822V38.336H181.686V34.912ZM182.006 44.512H194.646V48H177.846V25.6H194.198V29.088H182.006V44.512ZM205.851 48L198.427 25.6H202.747L209.371 45.856H207.227L214.107 25.6H217.947L224.635 45.856H222.555L229.339 25.6H233.307L225.883 48H221.467L215.355 29.728H216.507L210.299 48H205.851ZM238.296 48V25.6H242.456V48H238.296ZM257.058 48.32C255.309 48.32 253.634 48.0747 252.034 47.584C250.434 47.072 249.165 46.4213 248.226 45.632L249.666 42.4C250.562 43.104 251.672 43.6907 252.994 44.16C254.317 44.6293 255.672 44.864 257.058 44.864C258.232 44.864 259.181 44.736 259.906 44.48C260.632 44.224 261.165 43.8827 261.506 43.456C261.848 43.008 262.018 42.5067 262.018 41.952C262.018 41.2693 261.773 40.7253 261.282 40.32C260.792 39.8933 260.152 39.5627 259.362 39.328C258.594 39.072 257.73 38.8373 256.77 38.624C255.832 38.4107 254.882 38.1653 253.922 37.888C252.984 37.5893 252.12 37.216 251.33 36.768C250.562 36.2987 249.933 35.68 249.442 34.912C248.952 34.144 248.706 33.1627 248.706 31.968C248.706 30.752 249.026 29.6427 249.666 28.64C250.328 27.616 251.32 26.8053 252.642 26.208C253.986 25.5893 255.682 25.28 257.73 25.28C259.074 25.28 260.408 25.4507 261.73 25.792C263.053 26.1333 264.205 26.624 265.186 27.264L263.874 30.496C262.872 29.8987 261.837 29.4613 260.77 29.184C259.704 28.8853 258.68 28.736 257.698 28.736C256.546 28.736 255.608 28.8747 254.882 29.152C254.178 29.4293 253.656 29.792 253.314 30.24C252.994 30.688 252.834 31.2 252.834 31.776C252.834 32.4587 253.069 33.0133 253.538 33.44C254.029 33.8453 254.658 34.1653 255.426 34.4C256.216 34.6347 257.09 34.8693 258.05 35.104C259.01 35.3173 259.96 35.5627 260.898 35.84C261.858 36.1173 262.722 36.48 263.49 36.928C264.28 37.376 264.909 37.984 265.378 38.752C265.869 39.52 266.114 40.4907 266.114 41.664C266.114 42.8587 265.784 43.968 265.122 44.992C264.482 45.9947 263.49 46.8053 262.146 47.424C260.802 48.0213 259.106 48.32 257.058 48.32ZM275.679 34.912H286.815V38.336H275.679V34.912ZM275.999 44.512H288.639V48H271.839V25.6H288.191V29.088H275.999V44.512Z" fill="#393939"/>
</g>
<path d="M0.122621 35.0527C0.478486 33.6292 2.7916 29.0919 5.19369 25.0885C7.68474 20.996 9.73096 17.7043 9.90889 17.7043C9.99786 17.7043 9.81993 19.2167 9.46406 21.085C9.01923 22.8643 8.66337 26.8678 8.66337 29.9816C8.66337 33.8071 9.3751 37.3658 10.9765 41.5472C12.222 44.8389 14.98 50.0879 17.0262 53.2907C19.1614 56.4935 22.4531 60.408 24.3214 62.0984C26.2787 63.7887 30.1932 66.2798 33.129 67.6143C36.0649 69.0377 41.047 70.4612 50.0326 71.6177L44.2498 72.3295C40.6912 72.6853 35.5311 72.5964 30.9049 71.8846C26.7235 71.3508 22.72 70.2832 22.0083 69.6605C21.2966 69.0377 20.14 68.415 19.5172 68.415C18.9834 68.415 17.9158 67.3474 17.2931 66.1018C16.4034 64.1446 15.6027 63.6998 12.5779 63.6108C10.1758 63.5218 8.12957 62.8991 6.97301 61.7425C5.90542 60.7639 5.01576 59.6963 5.10472 59.3404C5.10472 58.8956 5.63852 58.8956 6.17232 59.1625C6.79508 59.4294 8.75233 59.2514 10.4427 58.7177C12.133 58.2728 13.8234 57.2942 14.1793 56.6714C14.5351 55.9597 13.8234 54.6252 12.3999 53.2018C11.0654 51.9562 8.12957 49.4652 5.72749 47.6859C2.88057 45.4617 1.19021 43.3265 0.567452 41.1024C0.0336553 39.2341 -0.144277 36.5651 0.122621 35.0527Z" fill="url(#paint0_linear_12_9)"/>
<path d="M26.9014 3.02485C28.8586 2.13519 32.0614 1.06759 34.0187 0.711729C35.9759 0.44483 37.7552 0.0889661 37.9332 0C38.1111 0 37.6663 0.622763 36.9545 1.42346C36.2428 2.31312 35.0863 4.4483 34.4635 6.13866C33.4849 8.71868 33.4849 10.3201 34.4635 15.4801C35.4421 20.8181 35.4421 22.0636 34.3745 23.9319C33.5738 25.2664 30.8159 27.0457 26.5455 28.825C22.4531 30.5154 19.2503 32.4726 18.0937 33.985C16.8482 35.6754 16.3144 37.6326 16.4034 39.7678C16.4924 41.5472 17.0261 43.5044 17.5599 43.9492C18.1827 44.572 18.4496 44.3051 18.4496 43.2375C18.4496 42.4368 19.0724 40.4796 19.7841 39.0561C20.4958 37.6326 22.0082 36.1202 23.1648 35.8533C24.2324 35.5864 26.4566 35.9423 28.0579 36.743C29.5704 37.5437 31.7055 38.1664 32.6842 38.1664C34.1076 38.1664 34.3745 38.6113 33.9297 40.1237C33.6628 41.2803 32.2393 43.2375 30.8159 44.572C29.3924 45.9955 27.791 47.8637 27.3462 48.8424C26.9014 49.821 26.4566 51.9562 26.4566 53.4686C26.4566 55.07 26.9014 57.0273 27.3462 57.739C28.0579 58.8955 28.2359 58.8066 28.6807 57.2942C29.0366 56.3155 30.0152 53.8245 30.9938 51.6893C32.2393 48.8424 33.3069 47.7748 35.4421 47.241C36.9545 46.8851 38.378 46.3513 38.5559 45.9065C38.7339 45.5506 39.3566 45.2837 39.8015 45.2837C40.2463 45.2837 40.6911 46.5293 40.6911 47.9527C40.6911 49.3762 39.8904 51.6893 38.9118 53.0238C37.8442 54.4472 37.3104 56.2266 37.5773 57.0273C37.8442 57.9169 38.467 58.6286 38.9118 58.6286C39.3566 58.6286 40.5132 58.1838 41.4029 57.561C42.6484 56.7603 43.627 57.0272 46.9188 59.3404C49.1429 60.8528 52.9684 62.5431 55.3705 63.0769C57.8616 63.6107 61.5982 63.7887 63.8223 63.5218C66.0465 63.1659 68.4485 62.6321 69.1603 62.3652C70.1389 62.0983 70.2279 62.1873 69.6051 62.899C69.1603 63.5218 65.6906 65.0342 62.043 66.2797C56.8829 68.059 53.7691 68.5928 48.2532 68.5928C43.1822 68.5928 39.6235 67.9701 35.798 66.5466C31.7055 65.0342 29.1255 63.1659 24.6772 58.7176C21.4745 55.5148 17.5599 50.4438 16.0475 47.5079C14.4461 44.572 12.5778 39.7678 11.8661 36.832C11.0654 33.8961 10.4427 30.2485 10.4427 28.825C10.4427 27.4016 11.2434 23.487 12.222 20.1063C13.6454 15.3022 14.891 13.2559 18.6275 9.4304C21.2076 6.85039 24.9441 4.00347 26.9014 3.02485Z" fill="url(#paint1_linear_12_9)"/>
<defs>
<filter id="filter0_d_12_9" x="66.864" y="25.28" width="225.775" height="31.04" filterUnits="userSpaceOnUse" color-interpolation-filters="sRGB">
<feFlood flood-opacity="0" result="BackgroundImageFix"/>
<feColorMatrix in="SourceAlpha" type="matrix" values="0 0 0 0 0 0 0 0 0 0 0 0 0 0 0 0 0 0 127 0" result="hardAlpha"/>
<feOffset dy="4"/>
<feGaussianBlur stdDeviation="2"/>
<feComposite in2="hardAlpha" operator="out"/>
<feColorMatrix type="matrix" values="0 0 0 0 0 0 0 0 0 0 0 0 0 0 0 0 0 0 0.25 0"/>
<feBlend mode="normal" in2="BackgroundImageFix" result="effect1_dropShadow_12_9"/>
<feBlend mode="normal" in="SourceGraphic" in2="effect1_dropShadow_12_9" result="shape"/>
</filter>
<linearGradient id="paint0_linear_12_9" x1="6.35773" y1="40.3608" x2="49.131" y2="78.6039" gradientUnits="userSpaceOnUse">
<stop stop-color="#10ACE6"/>
<stop offset="1" stop-color="#10E64A"/>
</linearGradient>
<linearGradient id="paint1_linear_12_9" x1="18.0107" y1="28.3443" x2="71.1616" y2="73.5612" gradientUnits="userSpaceOnUse">
<stop stop-color="#10ACE6"/>
<stop offset="1" stop-color="#10E64A"/>
</linearGradient>
</defs>
</svg>
